# xmcd
#
# Track frame offsets:
#	150
#	10115
#	27955
#	43580
#	58445
#	71920
#	91035
#	102735
#	118680
#	126170
#	137515
#	149885
#	163470
#	179765
#	192445
#	209440
#	218210
#	229220
#
# Disc length: 3269 seconds
#
# Revision: 0
# Processed by: cddbd v1.5.2PL0 Copyright (c) Steve Scherf et al.
# Submitted via: EasyCDDAExtractor 16.0.6.1
#
DISCID=260cc312
DTITLE=Συλλογικός δίσκος - Ελληνική παράδοση-Καμπίσια, τσάμικα, συρτά
DYEAR=2005
DGENRE=Παραδοσιακή
TTITLE0=Παπαδοπούλου Μαρία - Φοράς καινούργια φορεσιά [συρτοκαγκέλι]
TTITLE1=Καψάλης Γιώργος - Φέξε μου φεγγαράκι μου [τσάμικο]
TTITLE2=Βώττας Θανάσης - Γιούλα και Παναγιούλα
TTITLE3=Παπαδοπούλου Μαρία - Απόψε μαυρομάτα μου [τσάμικο]
TTITLE4=Καψάλης Γιώργος - Ο Αριστείδης [καγκέλι]
TTITLE5=Παπαδοπούλου Μαρία - Στη Ρούμελη και στο Μωριά [τσάμικο]
TTITLE6=Καψάλης Γιώργος - Θα χορέψει γέρο [καγκέλι]
TTITLE7=Καψάλης Γιώργος - Όλα τ' αμπέλια τά 'ψαξα [τσάμικο]
TTITLE8=Παπαδοπούλου Μαρία - Μέσ' στ' αμπέλι στην σταφίδα [συρτοκαγκέλι]
TTITLE9=Βώττας Θανάσης - Κακιά γειτόνισσα Ελένη [καγκέλι]
TTITLE10=Παπαδοπούλου Μαρία - Θέλω ν' ανέβω σε βουνό [τσάμικο]
TTITLE11=Καψάλης Γιώργος - Εκεί αυτού ψηλά που πας στη φτέρη [καγκέλι]
TTITLE12=Καψάλης Γιώργος - Μένα μού τό 'παν δυό πουλιά [τσάμικο]
TTITLE13=Παπαδοπούλου Μαρία - Η Παναγιούλα [καγκέλι]
TTITLE14=Βώττας Θανάσης - Άσπρη βαμπακιά [καγκέλι]
TTITLE15=Παπαδοπούλου Μαρία - Και μιά φορά η λεβεντιά [τσάμικο]
TTITLE16=Καψάλης Γιώργος - Μαρή πού πας απάνω [καγκέλι]
TTITLE17=Βώττας Θανάσης - Και τώρα το κοντόβραδο [συρτοκαγκέλι]
EXTD=
EXTT0=
EXTT1=
EXTT2=
EXTT3=
EXTT4=
EXTT5=
EXTT6=
EXTT7=
EXTT8=
EXTT9=
EXTT10=
EXTT11=
EXTT12=
EXTT13=
EXTT14=
EXTT15=
EXTT16=
EXTT17=
PLAYORDER=
